<?xml version="1.0" encoding="UTF-8" standalone="no"?>
<!-- Created with Inkscape (http://www.inkscape.org/) -->

<svg
   version="1.0"
   width="235"
   height="235"
   id="Standard of Commodore (JMSDF)"
   sodipodi:docname="logo.svg"
   inkscape:version="1.1 (c68e22c387, 2021-05-23)"
   xmlns:inkscape="http://www.inkscape.org/namespaces/inkscape"
   xmlns:sodipodi="http://sodipodi.sourceforge.net/DTD/sodipodi-0.dtd"
   xmlns="http://www.w3.org/2000/svg"
   xmlns:svg="http://www.w3.org/2000/svg">
  <defs
     id="defs838" />
  <sodipodi:namedview
     id="namedview836"
     pagecolor="#ffffff"
     bordercolor="#666666"
     borderopacity="1.0"
     inkscape:pageshadow="2"
     inkscape:pageopacity="0.0"
     inkscape:pagecheckerboard="0"
     showgrid="false"
     width="62.102px"
     fit-margin-top="0"
     fit-margin-left="0"
     fit-margin-right="0"
     fit-margin-bottom="0"
     inkscape:zoom="0.7535925"
     inkscape:cx="147.29446"
     inkscape:cy="275.34775"
     inkscape:window-width="1920"
     inkscape:window-height="1027"
     inkscape:window-x="-8"
     inkscape:window-y="-8"
     inkscape:window-maximized="1"
     inkscape:current-layer="Standard of Commodore (JMSDF)" />
  <path
     d="M 164.86664,60.299585 C 163.61374,34.001265 142.26547,12.216425 127.9585,5.4945047 L 117.49979,13.029735 107.04108,5.4945047 C 92.73408,12.216385 71.38575,34.001205 70.13295,60.299585 44.73452,53.364545 17.41905,66.935675 6.6053,78.465495 l 3.9345,12.27551 -10.39862,7.61839 c 1.97178,15.684275 16.0932,42.719325 40.71773,52.037395 -14.4446,22.01234 -9.97795,52.1846 -2.35427,66.03259 l 12.89046,0.051 4.03199,12.24377 c 15.52592,2.97148 45.60158,-2.10442 62.07293,-22.64428 16.47153,20.53983 46.54716,25.61573 62.07291,22.64428 l 4.03199,-12.24377 12.8905,-0.051 c 7.6236,-13.8478 12.0903,-44.02013 -2.3543,-66.03259 24.6244,-9.31804 38.7459,-36.35293 40.7177,-52.037395 l -10.3986,-7.61839 3.9345,-12.27551 c -10.814,-11.52982 -38.1293,-25.10098 -63.52764,-18.16591 z"
     id="path13"
     style="fill:#be0026;fill-rule:nonzero" />
</svg>
