<?xml version="1.0" encoding="UTF-8" standalone="no"?>
<!-- Created with Inkscape (http://www.inkscape.org/) -->

<svg
   version="1.0"
   width="235"
   height="235"
   id="Standard of Commodore (JMSDF)"
   sodipodi:docname="logo.svg"
   inkscape:version="1.1 (c68e22c387, 2021-05-23)"
   inkscape:export-filename="C:\Users\niar\Documents\github\japReader\images\logo\logo_1024.png"
   inkscape:export-xdpi="418.31488"
   inkscape:export-ydpi="418.31488"
   xmlns:inkscape="http://www.inkscape.org/namespaces/inkscape"
   xmlns:sodipodi="http://sodipodi.sourceforge.net/DTD/sodipodi-0.dtd"
   xmlns="http://www.w3.org/2000/svg"
   xmlns:svg="http://www.w3.org/2000/svg">
  <defs
     id="defs838" />
  <sodipodi:namedview
     id="namedview836"
     pagecolor="#ffffff"
     bordercolor="#666666"
     borderopacity="1.0"
     inkscape:pageshadow="2"
     inkscape:pageopacity="0.0"
     inkscape:pagecheckerboard="0"
     showgrid="false"
     width="62.102px"
     fit-margin-top="0"
     fit-margin-left="0"
     fit-margin-right="0"
     fit-margin-bottom="0"
     inkscape:zoom="1.0657407"
     inkscape:cx="-62.867072"
     inkscape:cy="202.20678"
     inkscape:window-width="1920"
     inkscape:window-height="1027"
     inkscape:window-x="-8"
     inkscape:window-y="-8"
     inkscape:window-maximized="1"
     inkscape:current-layer="Standard of Commodore (JMSDF)" />
  <path
     d="M 164.86664,60.299585 C 163.61374,34.001265 142.26547,12.216425 127.9585,5.4945047 L 117.49979,13.029735 107.04108,5.4945047 C 92.73408,12.216385 71.38575,34.001205 70.13295,60.299585 44.73452,53.364545 17.41905,66.935675 6.6053,78.465495 l 3.9345,12.27551 -10.39862,7.61839 c 1.97178,15.684275 16.0932,42.719325 40.71773,52.037395 -14.4446,22.01234 -9.97795,52.1846 -2.35427,66.03259 l 12.89046,0.051 4.03199,12.24377 c 15.52592,2.97148 45.60158,-2.10442 62.07293,-22.64428 16.47153,20.53983 46.54716,25.61573 62.07291,22.64428 l 4.03199,-12.24377 12.8905,-0.051 c 7.6236,-13.8478 12.0903,-44.02013 -2.3543,-66.03259 24.6244,-9.31804 38.7459,-36.35293 40.7177,-52.037395 l -10.3986,-7.61839 3.9345,-12.27551 c -10.814,-11.52982 -38.1293,-25.10098 -63.52764,-18.16591 z"
     id="path13"
     style="fill:#be0026;fill-rule:nonzero" />
  <g
     id="g50615"
     transform="translate(-5.7184494,33.506172)">
    <path
       id="path12727"
       style="opacity:1;fill:#ffffff;fill-opacity:1;stroke:#000000;stroke-width:3.77953;stroke-linecap:round;stroke-linejoin:miter;stroke-miterlimit:4;stroke-dasharray:none;stroke-opacity:1;paint-order:normal"
       d="m 113.02158,39.097809 a 29.791485,29.791485 0 0 0 -29.79101,29.79102 29.791485,29.791485 0 0 0 29.79101,29.792965 29.791485,29.791485 0 0 0 14.78321,-4.00782 c 0.0916,0.29796 0.1741,0.5997 0.1582,0.70117 0.18346,0.8045 0.41502,1.59642 0.62891,2.39454 0.0265,0.0987 -0.0618,-0.19612 -0.0879,-0.29493 0.41162,1.48093 0.36348,1.44355 0.57031,1.98828 0.0671,0.21722 0.0418,0.13359 0.0762,0.24219 0.19688,0.937226 0.45735,1.858006 0.7168,2.779296 l 18.13281,-5.164056 c -0.12441,-0.43305 -0.262,-0.85313 -0.35547,-1.29493 -0.21034,-0.98874 -0.47183,-1.93075 -0.79101,-2.875 -0.18981,-0.785855 -0.33506,-1.203855 -0.5293,-2.052725 -0.45123,-1.78112 -1.08953,-3.50353 -1.50391,-5.29492 -0.19232,-0.73513 -0.3739,-1.46122 -0.60937,-2.17969 -0.21526,-0.90249 -0.45436,-1.79773 -0.61328,-2.71484 -0.37934,-2.3014 -0.7874,-4.59784 -1.05469,-6.91602 -0.0117,-0.13056 -0.0426,-0.47786 -0.0644,-0.71875 a 29.791485,29.791485 0 0 0 0.33594,-4.38476 29.791485,29.791485 0 0 0 -29.79298,-29.79102 z m -0.22266,15.25977 a 13.976239,14.074718 0 0 1 13.97657,14.07617 13.976239,14.074718 0 0 1 -13.97657,14.07422 13.976239,14.074718 0 0 1 -13.97655,-14.07422 13.976239,14.074718 0 0 1 13.97655,-14.07617 z m 31.25978,28.81445 c -0.0242,-0.0657 0.0474,0.13111 0.0703,0.19727 0.003,0.01166 0.005,0.02349 0.008,0.03515 -0.0268,-0.07738 -0.0497,-0.15523 -0.0781,-0.23242 z" />
    <g
       id="g40526">
      <path
         style="fill:#ffffff;fill-opacity:1;stroke:#000000;stroke-width:3.77953;stroke-linecap:round;stroke-linejoin:miter;stroke-miterlimit:4;stroke-dasharray:none;stroke-opacity:1;paint-order:normal"
         id="path10908"
         d="m 52.858338,51.928224 c -0.04588,3.08401 -0.199442,6.1685 -0.254216,9.25454 -0.05985,4.27435 -0.02141,8.54928 -0.0075,12.82383 0.0052,4.01544 -0.01081,8.03084 -0.0049,12.04629 -0.02694,4.18237 0.07233,8.3661 -0.04792,12.54716 -0.09748,3.797196 -0.325354,7.587886 -0.744652,11.363026 -0.498683,4.76022 -1.429965,9.45765 -2.341913,14.15169 -0.953273,4.62416 -2.012109,9.2243 -3.276312,13.77365 -0.962149,2.95261 -1.849652,5.94903 -3.133337,8.78169 -1.471264,3.04001 -3.106621,6.01863 -5.075533,8.76668 -1.162051,1.6238 -2.500557,3.10629 -3.798524,4.6192 -0.567923,0.67392 -1.162452,1.32427 -1.77496,1.95764 0,0 13.703157,12.93964 13.703157,12.93964 v 0 c 0.808193,-0.86826 1.599666,-1.75155 2.369788,-2.6539 1.700774,-1.99169 3.395136,-3.99199 4.888681,-6.1484 2.590574,-3.78429 4.891968,-7.76415 6.839051,-11.91926 0.327827,-0.7545 0.674316,-1.50117 0.98348,-2.26352 1.209362,-2.98206 2.109732,-6.08676 3.065465,-9.15476 1.341862,-5.0022 2.500299,-10.04849 3.529008,-15.12441 1.017453,-5.19444 2.064706,-10.39008 2.646108,-15.65596 0.476958,-4.28897 0.72392,-8.59503 0.824109,-12.909366 0.119287,-4.35514 0.0657,-8.71197 0.08241,-13.06847 0.0069,-4.02952 -0.0088,-8.05896 -0.02038,-12.08846 -0.0042,-4.14227 -0.02032,-8.28477 0.02305,-12.42688 0.06586,-3.20756 0.238436,-6.40806 0.392113,-9.61165 0,0 -18.866274,0 -18.866274,0 z" />
      <circle
         style="fill:#ffffff;fill-opacity:1;stroke:#000000;stroke-width:3.77953;stroke-linecap:round;stroke-linejoin:miter;stroke-miterlimit:4;stroke-dasharray:none;stroke-opacity:1;paint-order:normal"
         id="path12727-4"
         cx="60.52129"
         cy="28.149433"
         r="13.605559" />
    </g>
    <path
       id="path12727-6"
       style="fill:#ffffff;fill-opacity:1;stroke:#000000;stroke-width:3.78;stroke-linecap:round;stroke-linejoin:miter;stroke-miterlimit:4;stroke-dasharray:none;stroke-opacity:1;paint-order:normal"
       d="m 185.0452,36.232198 a 29.791485,29.791485 0 0 0 -29.79101,29.791015 29.791485,29.791485 0 0 0 0.39843,4.677734 c -0.13692,2.118505 -0.0695,4.244116 -0.23828,6.359375 -0.17967,2.349055 -0.18981,4.706057 -0.19336,7.060547 0.0842,2.03219 -0.0696,4.051465 -0.18359,6.078125 -0.0725,2.4753 -0.33947,4.93979 -0.66797,7.39258 -0.47142,2.971516 -1.01733,5.930156 -1.57422,8.886716 -0.26439,1.64801 -0.66085,3.26898 -1.06641,4.88672 -0.59556,2.40377 -1.28948,4.78898 -2.0957,7.13086 -0.66457,2.15879 -1.44722,4.26388 -2.33594,6.33789 -0.84957,2.0941 -1.60816,4.22136 -2.42187,6.33007 -0.36468,0.81826 -0.62711,1.67943 -0.98047,2.50196 -0.0236,0.0548 -0.0822,0.0875 -0.10938,0.14063 -0.11758,0.22972 -0.22803,0.46367 -0.34179,0.69531 l 16.99414,8.16797 c 0.25233,-0.55983 0.0693,-0.16122 0.57812,-1.17969 0.53789,-1.16263 0.92571,-2.37958 1.40821,-3.56445 0.73491,-1.90968 1.43967,-3.82781 2.18554,-5.73243 1.06565,-2.52546 2.00384,-5.0923 2.82227,-7.70898 0.92393,-2.78533 1.79805,-5.59027 2.51953,-8.43555 0.53635,-2.04407 1.01954,-4.10284 1.31836,-6.19727 0.57889,-3.25933 1.20133,-6.51037 1.72461,-9.77929 0.28989,-2.183806 0.53438,-4.374306 0.68555,-6.572266 a 29.791485,29.791485 0 0 0 11.36523,2.31446 29.791485,29.791485 0 0 0 29.79102,-29.791021 29.791485,29.791485 0 0 0 -29.79102,-29.791015 z m -1.16992,16.332031 a 13.976239,14.074718 0 0 1 13.97656,14.074218 13.976239,14.074718 0 0 1 -13.97656,14.074219 13.976239,14.074718 0 0 1 -13.97656,-14.074219 13.976239,14.074718 0 0 1 13.97656,-14.074218 z" />
  </g>
  <text
     xml:space="preserve"
     style="font-style:normal;font-variant:normal;font-weight:normal;font-stretch:normal;font-size:64px;line-height:1.25;font-family:sans-serif;-inkscape-font-specification:'sans-serif, Normal';font-variant-ligatures:normal;font-variant-caps:normal;font-variant-numeric:normal;font-variant-east-asian:normal;fill:#000000;fill-opacity:1;stroke:#000000;stroke-width:2.8;stroke-linecap:butt;stroke-linejoin:round;stroke-miterlimit:4;stroke-dasharray:none;stroke-opacity:1"
     x="1.84375"
     y="179.88251"
     id="text18089"><tspan
       sodipodi:role="line"
       id="tspan18087"
       x="1.84375"
       y="179.88251"
       style="font-style:normal;font-variant:normal;font-weight:normal;font-stretch:normal;font-size:64px;font-family:sans-serif;-inkscape-font-specification:'sans-serif, Normal';font-variant-ligatures:normal;font-variant-caps:normal;font-variant-numeric:normal;font-variant-east-asian:normal;fill:#ffffff;fill-opacity:1;stroke:#000000;stroke-width:2.8;stroke-linecap:butt;stroke-linejoin:round;stroke-miterlimit:4;stroke-dasharray:none;stroke-opacity:1;paint-order:normal">Reader</tspan></text>
</svg>
