<?xml version="1.0" encoding="UTF-8" standalone="no"?>
<!-- Created with Inkscape (http://www.inkscape.org/) -->

<svg
   version="1.0"
   width="235"
   height="235"
   id="Standard of Commodore (JMSDF)"
   sodipodi:docname="logo.svg"
   inkscape:version="1.1 (c68e22c387, 2021-05-23)"
   inkscape:export-filename="C:\Users\niar\Documents\github\japReader\images\logo\logo_1024.png"
   inkscape:export-xdpi="418.31488"
   inkscape:export-ydpi="418.31488"
   xmlns:inkscape="http://www.inkscape.org/namespaces/inkscape"
   xmlns:sodipodi="http://sodipodi.sourceforge.net/DTD/sodipodi-0.dtd"
   xmlns="http://www.w3.org/2000/svg"
   xmlns:svg="http://www.w3.org/2000/svg">
  <defs
     id="defs838" />
  <sodipodi:namedview
     id="namedview836"
     pagecolor="#ffffff"
     bordercolor="#666666"
     borderopacity="1.0"
     inkscape:pageshadow="2"
     inkscape:pageopacity="0.0"
     inkscape:pagecheckerboard="0"
     showgrid="false"
     width="62.102px"
     fit-margin-top="0"
     fit-margin-left="0"
     fit-margin-right="0"
     fit-margin-bottom="0"
     inkscape:zoom="1.507185"
     inkscape:cx="44.12199"
     inkscape:cy="213.97507"
     inkscape:window-width="1920"
     inkscape:window-height="1027"
     inkscape:window-x="1912"
     inkscape:window-y="-8"
     inkscape:window-maximized="1"
     inkscape:current-layer="Standard of Commodore (JMSDF)" />
  <path
     d="M 164.86664,60.299585 C 163.61374,34.001265 142.26547,12.216425 127.9585,5.4945047 L 117.49979,13.029735 107.04108,5.4945047 C 92.73408,12.216385 71.38575,34.001205 70.13295,60.299585 44.73452,53.364545 17.41905,66.935675 6.6053,78.465495 l 3.9345,12.27551 -10.39862,7.61839 c 1.97178,15.684275 16.0932,42.719325 40.71773,52.037395 -14.4446,22.01234 -9.97795,52.1846 -2.35427,66.03259 l 12.89046,0.051 4.03199,12.24377 c 15.52592,2.97148 45.60158,-2.10442 62.07293,-22.64428 16.47153,20.53983 46.54716,25.61573 62.07291,22.64428 l 4.03199,-12.24377 12.8905,-0.051 c 7.6236,-13.8478 12.0903,-44.02013 -2.3543,-66.03259 24.6244,-9.31804 38.7459,-36.35293 40.7177,-52.037395 l -10.3986,-7.61839 3.9345,-12.27551 c -10.814,-11.52982 -38.1293,-25.10098 -63.52764,-18.16591 z"
     id="path13"
     style="fill:#be0026;fill-rule:nonzero" />
  <path
     id="path12727"
     style="fill:#ffffff;fill-opacity:1;stroke:#000000;stroke-width:3.77953;stroke-linecap:round;stroke-linejoin:miter;stroke-miterlimit:4;stroke-dasharray:none;stroke-opacity:1;paint-order:normal"
     d="M 94.630288,28.298122 A 36.065178,36.04417 56.522861 0 0 84.459496,78.261643 36.065178,36.04417 56.522861 0 0 134.41838,88.463516 36.065178,36.04417 56.522861 0 0 146.66086,74.55063 c 0.2914,0.239741 0.57615,0.489363 0.62786,0.602437 0.72237,0.689913 1.48487,1.335025 2.23367,1.998185 0.0927,0.08195 -0.19335,-0.156773 -0.28565,-0.239146 1.4043,1.220673 1.33077,1.215055 1.90325,1.627072 0.21278,0.174547 0.13141,0.106981 0.23863,0.193694 0.82453,0.814976 1.70225,1.570913 2.57928,2.328043 l 14.85071,-17.315849 c -0.41473,-0.354253 -0.83409,-0.686603 -1.22344,-1.070336 -0.87252,-0.858005 -1.76545,-1.6347 -2.71809,-2.375145 -0.71632,-0.666851 -1.14202,-0.991992 -1.90489,-1.719516 -1.64474,-1.49737 -3.43905,-2.810594 -5.05346,-4.342923 -0.68498,-0.613943 -1.35308,-1.22594 -2.07048,-1.794274 -0.81989,-0.767634 -1.65899,-1.512045 -2.43177,-2.332046 -1.91962,-2.070689 -3.8649,-4.11721 -5.68264,-6.279628 -0.099,-0.124006 -0.36205,-0.454114 -0.54493,-0.682794 A 36.065178,36.04417 56.522861 0 0 144.58994,38.496662 36.065178,36.04417 56.522861 0 0 94.63038,28.298061 Z m 9.965232,15.557275 a 17.038668,16.909594 56.522861 0 1 23.5043,4.885897 17.038668,16.909594 56.522861 0 1 -4.70646,23.539175 17.038668,16.909594 56.522861 0 1 -23.50298,-4.883933 17.038668,16.909594 56.522861 0 1 4.70514,-23.541139 z m 50.78769,8.233586 c -0.0683,-0.05015 0.13535,0.100782 0.20263,0.152306 0.0111,0.0096 0.0207,0.02038 0.0318,0.03002 -0.0787,-0.06028 -0.15379,-0.123594 -0.23403,-0.182566 z" />
  <g
     id="g40526"
     style="stroke-width:0.826286"
     transform="matrix(1.0091695,-0.6673758,0.66776479,1.0097577,-50.106411,77.204891)">
    <path
       style="fill:#ffffff;fill-opacity:1;stroke:#000000;stroke-width:3.12297;stroke-linecap:round;stroke-linejoin:miter;stroke-miterlimit:4;stroke-dasharray:none;stroke-opacity:1;paint-order:normal"
       id="path10908"
       d="m 52.858338,51.928224 c -0.04588,3.08401 -0.199442,6.1685 -0.254216,9.25454 -0.05985,4.27435 -0.02141,8.54928 -0.0075,12.82383 0.0052,4.01544 -0.01081,8.03084 -0.0049,12.04629 -0.02694,4.18237 0.07233,8.3661 -0.04792,12.54716 -0.09748,3.797196 -0.325354,7.587886 -0.744652,11.363026 -0.498683,4.76022 -1.429965,9.45765 -2.341913,14.15169 -0.953273,4.62416 -2.012109,9.2243 -3.276312,13.77365 -0.962149,2.95261 -1.849652,5.94903 -3.133337,8.78169 -1.471264,3.04001 -3.106621,6.01863 -5.075533,8.76668 -1.162051,1.6238 -2.500557,3.10629 -3.798524,4.6192 -0.567923,0.67392 -1.162452,1.32427 -1.77496,1.95764 0,0 13.703157,12.93964 13.703157,12.93964 v 0 c 0.808193,-0.86826 1.599666,-1.75155 2.369788,-2.6539 1.700774,-1.99169 3.395136,-3.99199 4.888681,-6.1484 2.590574,-3.78429 4.891968,-7.76415 6.839051,-11.91926 0.327827,-0.7545 0.674316,-1.50117 0.98348,-2.26352 1.209362,-2.98206 2.109732,-6.08676 3.065465,-9.15476 1.341862,-5.0022 2.500299,-10.04849 3.529008,-15.12441 1.017453,-5.19444 2.064706,-10.39008 2.646108,-15.65596 0.476958,-4.28897 0.72392,-8.59503 0.824109,-12.909366 0.119287,-4.35514 0.0657,-8.71197 0.08241,-13.06847 0.0069,-4.02952 -0.0088,-8.05896 -0.02038,-12.08846 -0.0042,-4.14227 -0.02032,-8.28477 0.02305,-12.42688 0.06586,-3.20756 0.238436,-6.40806 0.392113,-9.61165 0,0 -18.866274,0 -18.866274,0 z" />
    <circle
       style="fill:#ffffff;fill-opacity:1;stroke:#000000;stroke-width:3.12297;stroke-linecap:round;stroke-linejoin:miter;stroke-miterlimit:4;stroke-dasharray:none;stroke-opacity:1;paint-order:normal"
       id="path12727-4"
       cx="60.52129"
       cy="28.149433"
       r="13.605559" />
  </g>
  <path
     id="path12727-6"
     style="fill:#ffffff;fill-opacity:1;stroke:#000000;stroke-width:3.78;stroke-linecap:round;stroke-linejoin:miter;stroke-miterlimit:4;stroke-dasharray:none;stroke-opacity:1;paint-order:normal"
     d="m 133.33079,104.82566 a 36.065178,36.04417 56.522861 0 0 -10.17079,49.96351 36.065178,36.04417 56.522861 0 0 3.52572,4.45747 c 1.27648,2.23056 2.76392,4.33192 4.0061,6.58045 1.3873,2.49188 2.95099,4.87865 4.51964,7.25849 1.442,1.99583 2.6352,4.13744 3.87349,6.25995 1.57977,2.54784 2.95604,5.21455 4.26242,7.9105 1.50852,3.31513 2.93329,6.66697 4.34558,10.02403 0.83367,1.84054 1.516,3.74192 2.18699,5.6461 1.00413,2.82469 1.89661,5.69628 2.64682,8.59906 0.7709,2.62337 1.38677,5.27133 1.87486,7.95868 0.541,2.68152 1.19596,5.3358 1.78292,8.00814 0.17838,1.06963 0.4886,2.11434 0.68126,3.18071 0.0127,0.0711 -0.0246,0.14324 -0.0165,0.21501 0.0347,0.31043 0.0795,0.62037 0.11939,0.93019 l 22.60424,-3.0938 c -0.11919,-0.7337 -0.0378,-0.20903 -0.20433,-1.57703 -0.23355,-1.53295 -0.6548,-3.0206 -0.95909,-4.53904 -0.53357,-2.41877 -1.10321,-4.82596 -1.62234,-7.24694 -0.61099,-3.26129 -1.37824,-6.4793 -2.29964,-9.66771 -0.92754,-3.42912 -1.91845,-6.8448 -3.09033,-10.19934 -0.82368,-2.42196 -1.71084,-4.82329 -2.80786,-7.13758 -1.59227,-3.67747 -3.13506,-7.37564 -4.78985,-11.02568 -1.16572,-2.39858 -2.38173,-4.77362 -3.6969,-7.09391 a 36.065178,36.04417 56.522861 0 0 13.01497,-5.24784 36.065178,36.04417 56.522861 0 0 10.17078,-49.96351 36.065178,36.04417 56.522861 0 0 -49.95757,-10.19991 z m 9.7253,17.27217 a 17.038668,16.909594 56.522861 0 1 23.50299,4.88393 17.038668,16.909594 56.522861 0 1 -4.70645,23.53918 17.038668,16.909594 56.522861 0 1 -23.50298,-4.88394 17.038668,16.909594 56.522861 0 1 4.70644,-23.53917 z" />
</svg>
